<svg xmlns="http://www.w3.org/2000/svg" width="72.689" height="33.654" viewBox="0 0 72.689 33.654">
  <g id="motorcycle-5334209" transform="translate(-70 -165.935)">
    <path id="Path_8772" data-name="Path 8772" d="M145.392,172.064a13.41,13.41,0,0,1,2.339,1.341,14.419,14.419,0,0,0,1.061,1.309,17.28,17.28,0,0,0,3.133,1.927c1.64.876,3.969,2.071,5.453,2.751s2.123.846,2.557.7a.885.885,0,0,0,.577-1.01c-.258-1.287-1.664-1.727-1.767-2.488-.194-1.445,1.509-2.336,2.739-2.5,2.352-.308,4.665.073,7.115-.414,2.1-.416,5.146-1.941,7.6-2.691a40.969,40.969,0,0,1,5.015-1.374,20.521,20.521,0,0,1,4.159.052c.651.008,1.249-.249,1.408.355a3.913,3.913,0,0,1-.275,1.608c-.165.562-.237,1.413-.823,1.662a3.877,3.877,0,0,1-.945.194,7.816,7.816,0,0,0-.943.166,3.784,3.784,0,0,0-.932.391,11.7,11.7,0,0,0-1.462,1.061c-.551.441-1.8,1.289-2.531,1.817-1.186.855-2.566,1.7-3.267,2.267a11.175,11.175,0,0,0-1.186,1.3c-.158.151-.368.321-.6.5-.5.271-.982.55-1.447.842q-.934.585-1.787,1.24c-.571.436-1.116.893-1.644,1.369a19.289,19.289,0,0,0-2.689,2.878,6.152,6.152,0,0,0-.708,1.255,38.6,38.6,0,0,0-.826,3.793,2.787,2.787,0,0,1-.366.786c-.878.185-1.765.325-2.62.424a24.834,24.834,0,0,1-3.9.154c.4-.507.159-.821.067-1.347-.008-.054.021-.1.179-.125a8.787,8.787,0,0,1,1.357-.017c.981.029,2.466.138,3.2-.643,1.016-1.081-.011-2.98-.775-3.9a4.938,4.938,0,0,0-3.449-1.948c-1.651-.073-1.307.829-2.32-.768-1.24-1.958-3.082-4.458-5.4-5.183-1.965-.615-4.2-.959-6.226-1.526a9.224,9.224,0,0,1-1.677-.53c.773-1.75,1.563-3.494,2.377-5.21l.228-.476Zm-8.682,14.845a2.613,2.613,0,1,0,1.527.485c.478-1.125,1.066-2.553,1.811-4.308,1.49-3.5,3.614-8.3,4.757-10.717.5-1.047,1.494-2.574,2.092-3.624.123.065.256.134.4.211.551.3,1.221.691,1.6.84s.474.056.592-.144a1.086,1.086,0,0,0,.2-.747c-.067-.237-.345-.4-.8-.641-.43-.227-1.018-.521-1.459-.744a1.267,1.267,0,0,0-.575-1.477,1.052,1.052,0,0,0-.988.12,1.484,1.484,0,0,0-.157.112c-.061-.024-.123-.047-.186-.069a3.174,3.174,0,0,0-1.056-.269c-.248.021-.33.207-.469.551a5.185,5.185,0,0,0-.37,1.216.615.615,0,0,0,.3.691c.217.1.526.067.6.154a.742.742,0,0,1,0,.814c-.824,1.747-1.991,4.344-2.844,6.275-1.3,2.937-3.051,6.9-4.181,9.459-.308.7-.571,1.3-.793,1.812Zm-5.059-5.767a12.721,12.721,0,0,1,3.015-1.16,8.86,8.86,0,0,1,3.7.016c.286.058.577.127.868.207q-.981,2.218-1.96,4.438a16.128,16.128,0,0,0-1.8-1.373,11.889,11.889,0,0,0-2.751-1.04,12.5,12.5,0,0,1-1.659-.454c-.222-.129-.067-.284.593-.634Zm9.7-.1a9.4,9.4,0,0,1,.869.517,9.82,9.82,0,0,1,2.993,3.175,10.781,10.781,0,0,1,1.264,3.612,3.782,3.782,0,0,1-.062,2c-.159.336-.418.346-.727.03a8.81,8.81,0,0,1-1.169-1.948,14.209,14.209,0,0,0-1.979-3.242,4,4,0,0,0-2.4-1.31l.271-.641q.467-1.1.939-2.2Zm42.145-6.805c.176.33.348.779.517,1.152a4.388,4.388,0,0,0,1.169,1.578c.671.628,1.763,1.495,2.645,2.2s1.552,1.252,2.014,1.628.722.582,1.057.846a4.984,4.984,0,0,1,.81.706c.061.124-.227.052-.872-.154a15.2,15.2,0,0,1-2.86-1.223,42.458,42.458,0,0,1-3.664-2.407,23.8,23.8,0,0,0-2.175-1.458,6.063,6.063,0,0,0-1.51-.577c-.1-.023-.194-.042-.278-.059.734-.469,1.548-1.182,2.182-1.636a8.253,8.253,0,0,1,.966-.6Zm-37.075-5.753a1.748,1.748,0,0,1-.3-.205c-.185-.17-.124-.3-.041-.516s.185-.5.372-.573c.136-.056.318.006.584.133a.818.818,0,0,0-.35-.906.655.655,0,0,0-.607.093,1.588,1.588,0,0,0-.585.714c-.164.376-.288,1.2.217,1.423a.655.655,0,0,0,.607-.093.915.915,0,0,0,.1-.069ZM130.945,182.1a9.4,9.4,0,1,0,15.067,8.841,1.047,1.047,0,0,1-.568-.323,9.2,9.2,0,0,1-1.232-2.034,13.57,13.57,0,0,0-1.922-3.16,4.491,4.491,0,0,0-.823-.687,6.738,6.738,0,1,1-6.992-1.576,14.3,14.3,0,0,0-1.847-.6,12.438,12.438,0,0,1-1.684-.457Zm47.825-1.982a9.408,9.408,0,0,0-9.235,11.168,1.973,1.973,0,0,0,.252-.237c.249-.281.086-.586.393-.977a7.739,7.739,0,0,1,1.88-1.2,6.742,6.742,0,0,1,10.445-4.97c.091-.04.168-.073.214-.088a1.267,1.267,0,0,1,1.491.368,1.779,1.779,0,0,1,.377,1.925A6.741,6.741,0,0,1,173.4,193.6c-.768.36-1.852.725-2.2-.208-.267.132-.529.284-.793.431a9.4,9.4,0,1,0,8.361-13.7Zm-1.256,11.122c1.093.027,2.07.037,2.771.042,1.576.011,1.763-.01,1.877-.138a1.11,1.11,0,0,0,.17-.628,3.586,3.586,0,0,0-.03-.753c-.033-.181-.086-.291-1.735-.465l-.061.037c-.977.611-1.979,1.266-2.992,1.905Zm1.838-5.792c-1.485.908-4.349,2.475-6.111,3.412a12.623,12.623,0,0,0-2.65,1.536c-.227.289-.02.557-.412,1a7.577,7.577,0,0,1-2.885,1.6,26.28,26.28,0,0,1-5.494,1.216,24.155,24.155,0,0,1-5.442.041,11.8,11.8,0,0,1-3.649-.978,4.233,4.233,0,0,1-2.041-1.815,8.921,8.921,0,0,1-1.113-3.041.958.958,0,0,1,.269-.9,10.734,10.734,0,0,1,.694,2.122c1.425,1.4,1.023.477,1.975,2.806.149.088.31.172.487.255a11.333,11.333,0,0,0,3.453.924q.409.047.824.079c.61-.425.323-.694.228-1.244-.049-.289.026-.515.516-.6a8.794,8.794,0,0,1,1.436-.023c.816.024,2.279.137,2.89-.514.831-.883-.186-2.628-.79-3.355a4.551,4.551,0,0,0-3.151-1.8c-1.651-.073-1.427.971-2.651-.959-1.179-1.861-2.966-4.32-5.171-5.009a2.947,2.947,0,0,0-.811-.146c-.127.269-.6.588-.881.908a2.156,2.156,0,0,0-.452,1.143,2.61,2.61,0,0,1-.372.98c-.2.289-.484.536-.412,1.031a3.244,3.244,0,0,0,1.177,2.026c.081.092.17.2.262.32a1.173,1.173,0,0,0-.343.4,2.775,2.775,0,0,0-.216,1.969,10.485,10.485,0,0,0,1.422,3.412,6.482,6.482,0,0,0,2.381,2.226,9.694,9.694,0,0,0,3.165.96,22.417,22.417,0,0,0,5.007.227,32.838,32.838,0,0,0,6.866-1.1,17.669,17.669,0,0,0,3.658-1.649c.571-.278.574-.052.656.236s.245.639,1.9-.206,4.811-2.885,6.656-4.04a13.843,13.843,0,0,0,2.536-1.67c.155-.248-.072-.474.175-.66s.969-.329,1.2-.712-.041-1-.32-1.318a.753.753,0,0,0-.927-.216,3.748,3.748,0,0,1-1.113.371c-.32-.021-.525-.33-.68-.361s-.258.217-1.742,1.123Zm-38.508-17.635c.5-.164.8.227,1.207.671a9.988,9.988,0,0,1,1.185,1.422,1.666,1.666,0,0,1,.252.738c-.19.4-.372.8-.548,1.19-.55,1.207-1.083,2.424-1.621,3.638l-.893,2.019c-.28.049-1.845,0-1.818-.411.011-.155.2-.381-.041-.443-.905-.237-1.5-.094-1.688-1.292a7.044,7.044,0,0,1,.353-2.806,7.818,7.818,0,0,1,1-2.272,10.908,10.908,0,0,1,2.609-2.453Zm-3.445,7.877a5.424,5.424,0,0,1,.228-3.036,6.717,6.717,0,0,1,1.135-2.4,5.18,5.18,0,0,1-.091,2.181C138.028,174.042,137.783,173.65,137.4,175.694Zm24.956,1.638a49.518,49.518,0,0,0,5.575-.2,19.548,19.548,0,0,0,4.9-1.433c1.834-.711,4.205-1.639,5.762-2.4a5.936,5.936,0,0,0,3.513-3.363,7.718,7.718,0,0,0-.828.089,40.564,40.564,0,0,0-4.959,1.362c-2.472.756-5.52,2.281-7.641,2.7-2.441.485-4.79.108-7.14.417-.985.129-2.544.84-2.384,2.033.166,1.236,2.554.794,3.205.79Zm24.023-7.2v0a3.981,3.981,0,0,1-.272,1.388c-.105.355-.256,1.259-.59,1.4a3.677,3.677,0,0,1-.837.165,8.059,8.059,0,0,0-1,.175,4.235,4.235,0,0,0-1.031.433,10.07,10.07,0,0,0-1.3.927,1.527,1.527,0,0,1,.458-.9,16.079,16.079,0,0,1,2.068-1.713c.225-.169.458-.344.643-.486.153-.115.331-.254.506-.39.468-.361.922-.713,1.354-1.007Zm-16.489,11.246c-1.042.211-2.937.654-4.813,1.082s-3.732.84-4.576,1.159-.681.547-.032.99,1.783,1.1,2.469,1.51.922.561,1.557.319a13.153,13.153,0,0,0,2.864-1.819,34.514,34.514,0,0,0,3.165-2.8c.592-.629.407-.65-.634-.438Zm-.742,10.053a11.187,11.187,0,0,1-2.067.968,20.582,20.582,0,0,1-2.184.635,3.674,3.674,0,0,0,.211-.543c.376-1.229.317-2.549.813-3.756a5.755,5.755,0,0,1,.663-1.173,18.942,18.942,0,0,1,2.629-2.81c.523-.473,1.061-.923,1.619-1.35.241-.185.489-.366.742-.544a9.774,9.774,0,0,0-2.612,6.664,9.884,9.884,0,0,0,.186,1.909Z" transform="translate(-49.029)" fill="#f17c3c" fill-rule="evenodd"/>
    <g id="Group_83" data-name="Group 83" transform="translate(70 199.583)">
      <path id="Path_8773" data-name="Path 8773" d="M0-.013H0v0H0v0Z" transform="translate(0 0.016)" fill="#f17c3c"/>
    </g>
    <g id="Group_84" data-name="Group 84" transform="translate(70.003 199.583)">
      <path id="Path_8774" data-name="Path 8774" d="M0-.016H0v0Z" transform="translate(0 0.016)" fill="#f17c3c"/>
    </g>
    <g id="Group_85" data-name="Group 85" transform="translate(70.005 199.583)">
      <path id="Path_8775" data-name="Path 8775" d="M0-.016v0H0v0Zm0,0H0Z" transform="translate(0 0.016)" fill="#f17c3c"/>
    </g>
    <g id="Group_86" data-name="Group 86" transform="translate(70.008 199.583)">
      <path id="Path_8776" data-name="Path 8776" d="M0-.013H0Zm0,0v0H0a0,0,0,0,1,0,0H0Z" transform="translate(0 0.016)" fill="#f17c3c"/>
    </g>
    <g id="Group_87" data-name="Group 87" transform="translate(70.01 199.583)">
      <path id="Path_8777" data-name="Path 8777" d="M0-.016v0H0v0Z" transform="translate(0 0.016)" fill="#f17c3c"/>
    </g>
    <g id="Group_88" data-name="Group 88" transform="translate(70.012 199.583)">
      <path id="Path_8778" data-name="Path 8778" d="M0-.016v0H0v0Zm0,0H0Z" transform="translate(0 0.016)" fill="#f17c3c"/>
    </g>
    <g id="Group_89" data-name="Group 89" transform="translate(70.015 199.583)">
      <path id="Path_8779" data-name="Path 8779" d="M0-.016v0H0v0Zm0,0v0H0v0Z" transform="translate(0 0.016)" fill="#f17c3c"/>
    </g>
    <g id="Group_90" data-name="Group 90" transform="translate(70.019 199.583)">
      <path id="Path_8780" data-name="Path 8780" d="M0-.013v0H0v0Zm0,0H0v0H0Z" transform="translate(0 0.016)" fill="#f17c3c"/>
    </g>
    <g id="Group_91" data-name="Group 91" transform="translate(70.023 199.583)">
      <path id="Path_8781" data-name="Path 8781" d="M0-.016l0,0v0H0Z" transform="translate(0 0.016)" fill="#f17c3c"/>
    </g>
    <g id="Group_92" data-name="Group 92" transform="translate(70.027 199.583)">
      <path id="Path_8782" data-name="Path 8782" d="M0-.013H0Zm0,0v0H0a0,0,0,0,1,0,0H0Z" transform="translate(0 0.016)" fill="#f17c3c"/>
    </g>
    <g id="Group_93" data-name="Group 93" transform="translate(70.029 199.583)">
      <path id="Path_8783" data-name="Path 8783" d="M0-.016v0Z" transform="translate(0 0.016)" fill="#f17c3c"/>
    </g>
    <g id="Group_94" data-name="Group 94" transform="translate(70.031 199.583)">
      <path id="Path_8784" data-name="Path 8784" d="M0-.016v0Z" transform="translate(0 0.016)" fill="#f17c3c"/>
    </g>
    <g id="Group_95" data-name="Group 95" transform="translate(70.032 199.583)">
      <path id="Path_8785" data-name="Path 8785" d="M0-.016v0H0v0Z" transform="translate(0 0.016)" fill="#f17c3c"/>
    </g>
    <g id="Group_96" data-name="Group 96" transform="translate(70.034 199.583)">
      <path id="Path_8786" data-name="Path 8786" d="M0-.016H0v0Z" transform="translate(0 0.016)" fill="#f17c3c"/>
    </g>
    <g id="Group_97" data-name="Group 97" transform="translate(70.036 199.583)">
      <path id="Path_8787" data-name="Path 8787" d="M0-.016v0Z" transform="translate(0 0.016)" fill="#f17c3c"/>
    </g>
    <g id="Group_98" data-name="Group 98" transform="translate(70.037 199.583)">
      <path id="Path_8788" data-name="Path 8788" d="M0-.016H0v0H0Zm0,0v0H0v0Z" transform="translate(0 0.016)" fill="#f17c3c"/>
    </g>
    <g id="Group_99" data-name="Group 99" transform="translate(70 199.587)">
      <path id="Path_8789" data-name="Path 8789" d="M0-.016v0H0v0Z" transform="translate(0 0.016)" fill="#f17c3c"/>
    </g>
    <g id="Group_100" data-name="Group 100" transform="translate(70.002 199.587)">
      <path id="Path_8790" data-name="Path 8790" d="M0-.016H0v0Z" transform="translate(0 0.016)" fill="#f17c3c"/>
    </g>
    <g id="Group_101" data-name="Group 101" transform="translate(70.004 199.587)">
      <path id="Path_8791" data-name="Path 8791" d="M0-.016H0v0H0Zm0,0v0H0v0Z" transform="translate(0 0.016)" fill="#f17c3c"/>
    </g>
    <g id="Group_102" data-name="Group 102" transform="translate(70.007 199.587)">
      <path id="Path_8792" data-name="Path 8792" d="M0-.016H0v0H0v0H0v0Z" transform="translate(0 0.016)" fill="#f17c3c"/>
    </g>
    <g id="Group_103" data-name="Group 103" transform="translate(70.012 199.587)">
      <path id="Path_8793" data-name="Path 8793" d="M0-.016v0H0v0Z" transform="translate(0 0.016)" fill="#f17c3c"/>
    </g>
    <g id="Group_104" data-name="Group 104" transform="translate(70.014 199.587)">
      <path id="Path_8794" data-name="Path 8794" d="M0-.016v0H0v0Z" transform="translate(0 0.016)" fill="#f17c3c"/>
    </g>
    <g id="Group_105" data-name="Group 105" transform="translate(70.017 199.587)">
      <path id="Path_8795" data-name="Path 8795" d="M0-.016v0H0v0Zm0,0H0Z" transform="translate(0 0.016)" fill="#f17c3c"/>
    </g>
    <g id="Group_106" data-name="Group 106" transform="translate(70.021 199.587)">
      <path id="Path_8796" data-name="Path 8796" d="M0-.016H0v0l0,0v0Z" transform="translate(0 0.016)" fill="#f17c3c"/>
    </g>
    <g id="Group_107" data-name="Group 107" transform="translate(70.024 199.587)">
      <path id="Path_8797" data-name="Path 8797" d="M0-.016H0v0H0Zm0,0v0H0v0Z" transform="translate(0 0.016)" fill="#f17c3c"/>
    </g>
    <g id="Group_108" data-name="Group 108" transform="translate(70.027 199.587)">
      <path id="Path_8798" data-name="Path 8798" d="M0-.013v0H0v0Z" transform="translate(0 0.016)" fill="#f17c3c"/>
    </g>
    <g id="Group_109" data-name="Group 109" transform="translate(70.03 199.587)">
      <path id="Path_8799" data-name="Path 8799" d="M0-.016v0H0v0Z" transform="translate(0 0.016)" fill="#f17c3c"/>
    </g>
    <g id="Group_110" data-name="Group 110" transform="translate(70.034 199.587)">
      <path id="Path_8800" data-name="Path 8800" d="M0-.016H0v0H0Z" transform="translate(0 0.016)" fill="#f17c3c"/>
    </g>
    <g id="Group_111" data-name="Group 111" transform="translate(70.037 199.587)">
      <path id="Path_8801" data-name="Path 8801" d="M0-.016H0v0Z" transform="translate(0 0.016)" fill="#f17c3c"/>
    </g>
    <g id="Group_112" data-name="Group 112" transform="translate(70.04 199.587)">
      <path id="Path_8802" data-name="Path 8802" d="M0-.016H0v0H0Zm0,0v0H0v0Z" transform="translate(0 0.016)" fill="#f17c3c"/>
    </g>
    <g id="Group_113" data-name="Group 113" transform="translate(70.042 199.587)">
      <path id="Path_8803" data-name="Path 8803" d="M0-.016v0Z" transform="translate(0 0.016)" fill="#f17c3c"/>
    </g>
    <g id="Group_114" data-name="Group 114" transform="translate(70.043 199.587)">
      <path id="Path_8804" data-name="Path 8804" d="M0-.016v0H0v0Zm0,0H0Z" transform="translate(0 0.016)" fill="#f17c3c"/>
    </g>
    <g id="Group_115" data-name="Group 115" transform="translate(70.046 199.587)">
      <path id="Path_8805" data-name="Path 8805" d="M0-.016H0v0H0v0Z" transform="translate(0 0.016)" fill="#f17c3c"/>
    </g>
    <g id="Group_116" data-name="Group 116" transform="translate(70.049 199.587)">
      <path id="Path_8806" data-name="Path 8806" d="M0-.016v0H0v0Z" transform="translate(0 0.016)" fill="#f17c3c"/>
    </g>
  </g>
</svg>
