<svg xmlns="http://www.w3.org/2000/svg" width="33.946" height="33.944" viewBox="0 0 33.946 33.944">
  <path id="Icon_ionic-ios-call" data-name="Icon ionic-ios-call" d="M37.456,31.081A28.512,28.512,0,0,0,31.5,27.1c-1.785-.857-2.439-.84-3.7.071-1.052.76-1.732,1.467-2.943,1.2s-3.6-2.068-5.912-4.374-4.118-4.7-4.374-5.912.451-1.891,1.2-2.943c.91-1.264.937-1.918.071-3.7A27.949,27.949,0,0,0,11.855,5.48c-1.3-1.3-1.591-1.016-2.306-.76A13.125,13.125,0,0,0,7.436,5.843,6.371,6.371,0,0,0,4.9,8.52c-.5,1.087-1.087,3.111,1.882,8.4A46.844,46.844,0,0,0,15.019,27.9h0l.009.009.009.009h0a47.027,47.027,0,0,0,10.984,8.236c5.285,2.969,7.308,2.386,8.4,1.882A6.263,6.263,0,0,0,37.093,35.5a13.125,13.125,0,0,0,1.122-2.112C38.472,32.672,38.764,32.38,37.456,31.081Z" transform="translate(-4.49 -4.502)" fill="#fff"/>
</svg>
