<svg xmlns="http://www.w3.org/2000/svg" width="36.463" height="36.46" viewBox="0 0 36.463 36.46">
  <path id="Icon_ionic-ios-call" data-name="Icon ionic-ios-call" d="M39.9,33.051a30.626,30.626,0,0,0-6.4-4.281c-1.917-.921-2.62-.9-3.977.076-1.13.816-1.86,1.576-3.161,1.291s-3.863-2.221-6.35-4.7-4.423-5.05-4.7-6.35.484-2.031,1.291-3.161c.978-1.357,1.006-2.06.076-3.977a30.021,30.021,0,0,0-4.281-6.4c-1.4-1.4-1.709-1.092-2.477-.816A14.1,14.1,0,0,0,7.655,5.942,6.844,6.844,0,0,0,4.931,8.818c-.541,1.168-1.168,3.341,2.022,9.017a50.317,50.317,0,0,0,8.847,11.8h0l.009.009.009.009h0a50.513,50.513,0,0,0,11.8,8.847c5.676,3.189,7.85,2.563,9.018,2.022A6.727,6.727,0,0,0,39.51,37.8a14.1,14.1,0,0,0,1.205-2.269C40.991,34.76,41.3,34.447,39.9,33.051Z" transform="translate(-4.49 -4.503)" fill="#fff"/>
</svg>
