<svg xmlns="http://www.w3.org/2000/svg" width="33.6" height="33.6" viewBox="0 0 33.6 33.6">
  <g id="Icon_material-access-time" data-name="Icon material-access-time" transform="translate(-3 -3)" fill="#fff">
    <path d="M 19.7834300994873 36.10046005249023 C 15.43295955657959 36.10046005249023 11.3433198928833 34.40438842773438 8.267860412597656 31.32468032836914 C 5.193260192871094 28.24581909179688 3.5 24.15303039550781 3.5 19.80023002624512 C 3.5 15.44742965698242 5.193260192871094 11.35463047027588 8.267860412597656 8.275779724121094 C 11.3433198928833 5.196070194244385 15.43295955657959 3.5 19.7834300994873 3.5 C 24.14241981506348 3.5 28.24039077758789 5.196199893951416 31.32246017456055 8.276140213012695 C 34.40359878540039 11.35515022277832 36.10046005249023 15.44781970977783 36.10046005249023 19.80023002624512 C 36.10046005249023 24.15263938903809 34.40359878540039 28.24530982971191 31.32246017456055 31.32431983947754 C 28.24039077758789 34.40425872802734 24.14241981506348 36.10046005249023 19.7834300994873 36.10046005249023 Z M 19.80023002624512 5.860050201416016 C 12.11359024047852 5.860050201416016 5.860050201416016 12.11359024047852 5.860050201416016 19.80023002624512 C 5.860050201416016 27.48686981201172 12.11359024047852 33.74040985107422 19.80023002624512 33.74040985107422 C 27.48686981201172 33.74040985107422 33.74040985107422 27.48686981201172 33.74040985107422 19.80023002624512 C 33.74040985107422 12.11359024047852 27.48686981201172 5.860050201416016 19.80023002624512 5.860050201416016 Z M 26.77188491821289 26.0881519317627 L 18.62019920349121 21.1971492767334 L 18.62019920349121 11.90011024475098 L 20.14023971557617 11.90011024475098 L 20.14023971557617 20.22023010253906 L 20.14023971557617 20.50494956970215 L 20.38509941101074 20.65023994445801 L 27.50997924804688 24.8776683807373 L 26.77188491821289 26.0881519317627 Z" stroke="none"/>
    <path d="M 19.7834300994873 4 C 15.56664085388184 4 11.6026496887207 5.643970489501953 8.621660232543945 8.629079818725586 C 5.641338348388672 11.61352920532227 4 15.58085060119629 4 19.80023002624512 C 4 24.01959991455078 5.641338348388672 27.98691940307617 8.621660232543945 30.97137069702148 C 11.6026496887207 33.95648193359375 15.56664085388184 35.60046005249023 19.7834300994873 35.60046005249023 C 24.00893020629883 35.60046005249023 27.98138999938965 33.95623016357422 30.96903038024902 30.97064018249512 C 33.95565032958984 27.98608016967773 35.60046005249023 24.01902008056641 35.60046005249023 19.80023002624512 C 35.60046005249023 15.58143997192383 33.95565032958984 11.6143798828125 30.96903038024902 8.629819869995117 C 27.98138999938965 5.644229888916016 24.00893020629883 4 19.7834300994873 4 M 19.80023002624512 34.24040985107422 C 11.837890625 34.24040985107422 5.360050201416016 27.76256942749023 5.360050201416016 19.80023002624512 C 5.360050201416016 11.837890625 11.837890625 5.360050201416016 19.80023002624512 5.360050201416016 C 27.76256942749023 5.360050201416016 34.24040985107422 11.837890625 34.24040985107422 19.80023002624512 C 34.24040985107422 27.76256942749023 27.76256942749023 34.24040985107422 19.80023002624512 34.24040985107422 M 19.12019920349121 12.40011024475098 L 19.12019920349121 20.91405868530273 L 26.60343360900879 25.40399169921875 L 26.81962585449219 25.04943466186523 L 19.64023971557617 20.78967094421387 L 19.64023971557617 12.40011024475098 L 19.12019920349121 12.40011024475098 M 19.7834300994873 3 C 29.07395935058594 3 36.60046005249023 10.5265007019043 36.60046005249023 19.80023002624512 C 36.60046005249023 29.07395935058594 29.07395935058594 36.60046005249023 19.7834300994873 36.60046005249023 C 10.50970077514648 36.60046005249023 3 29.07394981384277 3 19.80023002624512 C 3 10.5265007019043 10.50970077514648 3 19.7834300994873 3 Z M 19.80023002624512 33.24040985107422 C 27.22592926025391 33.24040985107422 33.24040985107422 27.22592926025391 33.24040985107422 19.80023002624512 C 33.24040985107422 12.37453079223633 27.22592926025391 6.360050201416016 19.80023002624512 6.360050201416016 C 12.37453079223633 6.360050201416016 6.360050201416016 12.37453079223633 6.360050201416016 19.80023002624512 C 6.360050201416016 27.22592926025391 12.37453079223633 33.24040985107422 19.80023002624512 33.24040985107422 Z M 18.12019920349121 11.40011024475098 L 20.64023971557617 11.40011024475098 L 20.64023971557617 20.22023010253906 L 28.20034027099609 24.70589065551758 L 26.94033050537109 26.77231979370117 L 18.12019920349121 21.48024940490723 L 18.12019920349121 11.40011024475098 Z" stroke="none" fill="#fff"/>
  </g>
</svg>
