<svg xmlns="http://www.w3.org/2000/svg" width="23" height="40.898" viewBox="0 0 23 40.898">
  <path id="Icon_awesome-dollar-sign" data-name="Icon awesome-dollar-sign" d="M16.71,18.644,8.083,16.119A2.356,2.356,0,0,1,8.746,11.5h5.3a4.876,4.876,0,0,1,2.732.839,1.245,1.245,0,0,0,1.558-.16l2.78-2.716a1.3,1.3,0,0,0-.144-1.957,11.3,11.3,0,0,0-6.909-2.4V1.278A1.282,1.282,0,0,0,12.78,0H10.224A1.282,1.282,0,0,0,8.946,1.278V5.112h-.2A8.752,8.752,0,0,0,.04,14.666a9.144,9.144,0,0,0,6.694,7.716l8.188,2.4a2.356,2.356,0,0,1-.663,4.617h-5.3a4.876,4.876,0,0,1-2.732-.839,1.245,1.245,0,0,0-1.558.16l-2.78,2.716a1.3,1.3,0,0,0,.144,1.957,11.3,11.3,0,0,0,6.909,2.4V39.62A1.282,1.282,0,0,0,10.224,40.9H12.78a1.282,1.282,0,0,0,1.278-1.278v-3.85A9.023,9.023,0,0,0,22.5,29.962,8.771,8.771,0,0,0,16.71,18.644Z" transform="translate(-0.003)" fill="#fff"/>
</svg>
