<svg xmlns="http://www.w3.org/2000/svg" width="17.875" height="17.875" viewBox="0 0 17.875 17.875">
  <path id="Icon_awesome-linkedin-in" data-name="Icon awesome-linkedin-in" d="M4,17.876H.3V5.941H4ZM2.146,4.313A2.156,2.156,0,1,1,4.292,2.147,2.164,2.164,0,0,1,2.146,4.313ZM17.871,17.876h-3.7V12.066c0-1.385-.028-3.16-1.927-3.16-1.927,0-2.222,1.5-2.222,3.06v5.909h-3.7V5.941H9.877V7.569h.052a3.894,3.894,0,0,1,3.506-1.927c3.751,0,4.44,2.47,4.44,5.678v6.556Z" transform="translate(0 -0.001)" fill="#fff"/>
</svg>
