<svg xmlns="http://www.w3.org/2000/svg" width="18.127" height="18.123" viewBox="0 0 18.127 18.123">
  <path id="Icon_awesome-instagram" data-name="Icon awesome-instagram" d="M9.06,6.653A4.647,4.647,0,1,0,13.707,11.3,4.639,4.639,0,0,0,9.06,6.653Zm0,7.667A3.021,3.021,0,1,1,12.081,11.3,3.026,3.026,0,0,1,9.06,14.32Zm5.92-7.858A1.084,1.084,0,1,1,13.9,5.379,1.081,1.081,0,0,1,14.981,6.463Zm3.077,1.1a5.363,5.363,0,0,0-1.464-3.8A5.4,5.4,0,0,0,12.8,2.3c-1.5-.085-5.981-.085-7.477,0a5.391,5.391,0,0,0-3.8,1.46,5.381,5.381,0,0,0-1.464,3.8c-.085,1.5-.085,5.981,0,7.477a5.363,5.363,0,0,0,1.464,3.8A5.406,5.406,0,0,0,5.32,20.3c1.5.085,5.981.085,7.477,0a5.363,5.363,0,0,0,3.8-1.464,5.4,5.4,0,0,0,1.464-3.8c.085-1.5.085-5.977,0-7.473Zm-1.933,9.079A3.058,3.058,0,0,1,14.4,18.364c-1.193.473-4.024.364-5.342.364s-4.153.105-5.342-.364A3.058,3.058,0,0,1,2,16.641c-.473-1.193-.364-4.024-.364-5.342S1.526,7.146,2,5.957A3.058,3.058,0,0,1,3.718,4.234C4.911,3.761,7.742,3.87,9.06,3.87s4.153-.105,5.342.364a3.058,3.058,0,0,1,1.723,1.723c.473,1.193.364,4.024.364,5.342S16.6,15.453,16.125,16.641Z" transform="translate(0.005 -2.238)" fill="#fff"/>
</svg>
