<svg xmlns="http://www.w3.org/2000/svg" width="17.075" height="22.194" viewBox="0 0 17.075 22.194">
  <path id="Icon_awesome-pinterest-p" data-name="Icon awesome-pinterest-p" d="M9.071.457C4.509.457,0,3.5,0,8.421c0,3.13,1.761,4.909,2.828,4.909.44,0,.694-1.227.694-1.574,0-.414-1.054-1.294-1.054-3.015a6.009,6.009,0,0,1,6.243-6.11c3.028,0,5.269,1.721,5.269,4.883,0,2.361-.947,6.79-4.015,6.79a1.974,1.974,0,0,1-2.054-1.948c0-1.681,1.174-3.308,1.174-5.043,0-2.944-4.175-2.41-4.175,1.147a5.224,5.224,0,0,0,.427,2.254c-.614,2.641-1.868,6.577-1.868,9.3,0,.84.12,1.668.2,2.508.151.169.076.151.307.067C6.217,19.52,6.136,18.92,7.15,14.9a3.607,3.607,0,0,0,3.082,1.6c4.722,0,6.844-4.6,6.844-8.751C17.075,3.339,13.26.457,9.071.457Z" transform="translate(0 -0.457)" fill="#fff"/>
</svg>
