<svg xmlns="http://www.w3.org/2000/svg" width="23.05" height="18.721" viewBox="0 0 23.05 18.721">
  <path id="Icon_awesome-twitter" data-name="Icon awesome-twitter" d="M20.681,8.046c.015.2.015.41.015.614A13.349,13.349,0,0,1,7.254,22.1,13.35,13.35,0,0,1,0,19.981a9.773,9.773,0,0,0,1.141.058,9.461,9.461,0,0,0,5.865-2.018,4.732,4.732,0,0,1-4.417-3.276,5.958,5.958,0,0,0,.892.073,5,5,0,0,0,1.243-.161A4.725,4.725,0,0,1,.936,10.021V9.962a4.758,4.758,0,0,0,2.135.6A4.731,4.731,0,0,1,1.609,4.244,13.428,13.428,0,0,0,11.35,9.187,5.333,5.333,0,0,1,11.233,8.1a4.729,4.729,0,0,1,8.176-3.232,9.3,9.3,0,0,0,3-1.141,4.711,4.711,0,0,1-2.077,2.6A9.471,9.471,0,0,0,23.05,5.6,10.155,10.155,0,0,1,20.681,8.046Z" transform="translate(0 -3.381)" fill="#fff"/>
</svg>
