<svg xmlns="http://www.w3.org/2000/svg" width="25.012" height="18.763" viewBox="0 0 25.012 18.763">
  <path id="Icon_ionic-logo-youtube" data-name="Icon ionic-logo-youtube" d="M24.85,8.643a3.8,3.8,0,0,0-3.616-3.967c-2.707-.127-5.467-.176-8.286-.176h-.879c-2.814,0-5.58.049-8.286.176A3.806,3.806,0,0,0,.171,8.653C.049,10.392-.005,12.132,0,13.871s.049,3.479.166,5.223a3.811,3.811,0,0,0,3.611,3.982c2.844.132,5.76.191,8.726.186s5.878-.049,8.726-.186a3.811,3.811,0,0,0,3.616-3.982c.117-1.744.171-3.484.166-5.228S24.967,10.388,24.85,8.643ZM10.114,18.664v-9.6l7.085,4.8Z" transform="translate(0 -4.5)" fill="#fff"/>
</svg>
