<svg xmlns="http://www.w3.org/2000/svg" width="42.354" height="33.6" viewBox="0 0 42.354 33.6">
  <g id="Icon_ionic-md-mail-unread" data-name="Icon ionic-md-mail-unread" transform="translate(-2.25 -4.5)">
    <path id="Path_8769" data-name="Path 8769" d="M37.559,10.342A5.842,5.842,0,1,1,31.717,4.5a5.842,5.842,0,0,1,5.842,5.842Z" transform="translate(7.045 0)" fill="#fff"/>
    <path id="Path_8770" data-name="Path 8770" d="M34.28,16.889,22.7,24.611,6.631,13.9v-3.9L22.7,20.714l9.228-6.152a8.208,8.208,0,0,1-.11-8.936H6.148a3.907,3.907,0,0,0-3.9,3.9V33.867a3.907,3.907,0,0,0,3.9,3.9H39.255a3.907,3.907,0,0,0,3.9-3.9V16.953a8.217,8.217,0,0,1-8.872-.064Z" transform="translate(0 0.335)" fill="#fff"/>
  </g>
</svg>
