<svg xmlns="http://www.w3.org/2000/svg" width="35.334" height="30.998" viewBox="0 0 35.334 30.998">
  <path id="Path_8766" data-name="Path 8766" d="M115.991,78.223c-5.336,5.339-6.276,6.335-6.307,6.3.14-.13-.146.5,3.263-7.923h0c.306.164-.028-.016,3.042,1.627Zm-10.1,5.1c-.341-.073.253-.454-7.451,5.849h0a.491.491,0,1,0,.621.76l7.041-5.76a.48.48,0,0,0-.21-.849Zm.533-4.5c-.239,0,.238-.314-6.061,4.583a.491.491,0,1,0,.6.775l5.762-4.48a.491.491,0,0,0-.3-.879Zm2.492,5.5,23.515-23.34c-7.254,5.749-8.755,6.878-18.842,14.857L124.3,81.587c4.831-12.25,6.449-16.315,8.127-20.605Zm-20.071,14.6c-.062.061-.024.017-.1.144-.432,1.073.079-.2-3.335,8.253h0a.474.474,0,0,0,0,.342h0c-.118-.312-.556-2.37-1.989-8.566l-8.455-.642a.49.49,0,0,1-.157-.939c40.609-17.543,34.268-14.8,35.037-15.132.129-.127-20.95,16.492-20.993,16.54Z" transform="translate(-98.02 -59.04)" fill="#fff"/>
</svg>
