<svg xmlns="http://www.w3.org/2000/svg" width="62.525" height="32.654" viewBox="0 0 62.525 32.654">
  <path id="pickup-4270958" d="M147.941,142.906a.7.7,0,0,1,.7.7v2.775a.7.7,0,0,1-.7.7H145.86v1.39h2.081a.624.624,0,0,1,.072,0,.7.7,0,0,1,.627.693v2.779a.7.7,0,0,1-.7.7H145.86v1.36h2.081a.7.7,0,0,1,.7.7v6.974h.692a.7.7,0,0,1,.7.692v2.781a.7.7,0,0,1-.7.692h-.692v.7A2.963,2.963,0,0,1,145.163,170H141.65a6.249,6.249,0,0,1-12.421,0H104.136a6.252,6.252,0,0,1-12.43-.031,3.06,3.06,0,0,1-2-.78,3.581,3.581,0,0,1-.816-2.661v-.7H88.2a.694.694,0,0,1-.692-.692v-2.78a.7.7,0,0,1,.692-.692h.692v-5.56a2.329,2.329,0,0,1,.677-1.59,4.645,4.645,0,0,1,1.533-1.005,17.379,17.379,0,0,1,4.5-1.087,75.693,75.693,0,0,1,9.487-.462c.184-.491,1.64-4.4,2.728-6.893a3.613,3.613,0,0,1,3.307-2.164h6.939a4.06,4.06,0,0,1,2.426.626,2.756,2.756,0,0,1,1.056,2.3v8.16h4.17v-1.36h-2.081a.7.7,0,0,1-.7-.7v-2.779a.694.694,0,0,1,.7-.693h2.081v-1.39h-2.081a.7.7,0,0,1-.7-.7V143.6a.7.7,0,0,1,.7-.7ZM118.059,144.3H111.12a2.219,2.219,0,0,0-2.035,1.332c-1.1,2.508-2.758,6.958-2.826,7.14v12.369h11.8a2.093,2.093,0,0,0,2.092-2.093v-17.21a1.227,1.227,0,0,0-.476-1.174,2.884,2.884,0,0,0-1.616-.364Zm.006,1.39a.694.694,0,0,1,.692.692v9.784a.7.7,0,0,1-.692.7h-9.718a.7.7,0,0,1-.7-.7v-1.113a.707.707,0,0,1,.026-.19l1.865-6.565a4.206,4.206,0,0,1,.786-1.819,2.76,2.76,0,0,1,2.159-.79Zm26.406,1.39h-1.39v1.39h1.39Zm-2.78,0H129.88v1.39h11.81Zm-13.2,0H127.1v1.39h1.391Zm15.98,5.559h-1.39V154h1.389Zm-2.78,0h-11.81V154h11.81Zm-13.2,0H127.1V154h1.39Zm18.759,2.749H121.541v7.661a3.483,3.483,0,0,1-3.482,3.483h-11.8v2.081h20.194a9.573,9.573,0,0,1,2.253-5.493,8.688,8.688,0,0,1,6.719-2.84,8.263,8.263,0,0,1,9.02,8.333h.718a1.655,1.655,0,0,0,2.087-2.081v-.7h-.7a.7.7,0,0,1-.692-.692v-2.78a.7.7,0,0,1,.692-.692h.7Zm-30.3,3.436a.7.7,0,1,1,0,1.39h-1.118a.7.7,0,1,1,0-1.39Zm-19.021,1.457H90.279v1.39h.7a.709.709,0,0,1,.692.693v2.78a.694.694,0,0,1-.692.692h-.7v.7a2.359,2.359,0,0,0,.406,1.677,1.683,1.683,0,0,0,1.031.372,6.251,6.251,0,0,1,12.42.033h.734v-2.476a5.786,5.786,0,0,0-1.39-3.836,8.1,8.1,0,0,0-5.554-2.021Zm37.514,1.39a7.2,7.2,0,0,0-5.687,2.369,8.219,8.219,0,0,0-1.906,4.574h1.384a6.248,6.248,0,0,1,12.418,0h1.407a6.883,6.883,0,0,0-7.616-6.943Zm0,5.543a2.1,2.1,0,1,0,2.1,2.1A2.088,2.088,0,0,0,135.44,167.21Zm-37.514,0a2.1,2.1,0,1,0,2.092,2.1A2.088,2.088,0,0,0,97.926,167.21Z" transform="translate(-87.505 -142.906)" fill="#f17c3c" fill-rule="evenodd"/>
</svg>
