<svg xmlns="http://www.w3.org/2000/svg" width="69.803" height="32.654" viewBox="0 0 69.803 32.654">
  <g id="van-1037059" transform="translate(-117.597 -171.28)">
    <path id="Path_8807" data-name="Path 8807" d="M186.33,184.021l-.462-2.006-3.7-9.3a2.379,2.379,0,0,0-2.223-1.435H142.907a2.445,2.445,0,0,0-1.86.835l-12.381,9.951-4.532.79a6.11,6.11,0,0,0-4.98,5.042l-1.542,9.536a1.59,1.59,0,0,0,.379,1.263,1.706,1.706,0,0,0,1.289.58h3.173l-.062-.961c-.006-.1-.014-.2-.014-.3a6.163,6.163,0,0,1,.77-2.988,6.247,6.247,0,0,1,.944-1.282,6.178,6.178,0,0,1,8.978,0,6.246,6.246,0,0,1,.944,1.282,6.163,6.163,0,0,1,.77,2.988c0,.107-.008.212-.021.4l-.057.866h35.6l-.06-.974c-.006-.1-.013-.191-.013-.288a6.163,6.163,0,0,1,.77-2.988,6.246,6.246,0,0,1,.945-1.282,6.178,6.178,0,0,1,8.978,0,6.247,6.247,0,0,1,.944,1.282,6.164,6.164,0,0,1,.77,2.988c0,.107-.008.212-.021.4l-.057.866h2.466a2.446,2.446,0,0,0,1.8-.77,2.085,2.085,0,0,0,.561-1.6Zm-65.57,13.641-1.542.015.428-2.65h1.708a7.754,7.754,0,0,0-.594,2.635Zm15.619-.219a7.756,7.756,0,0,0-.574-2.416h.574Zm14.764.211h-13.91v-2.627h13.909Zm-15.815-14.935a.214.214,0,0,1-.139-.376l8.246-7.093a.213.213,0,0,1,.14-.052h0l5.286.019a.214.214,0,0,1,.214.214v7.074a.214.214,0,0,1-.214.214Zm15.815,11.026h-13.91V184H148.86a1.5,1.5,0,0,0,1.5-1.5v-7.074a1.5,1.5,0,0,0-1.491-1.5l-5.286-.019h-.006a1.5,1.5,0,0,0-.976.361l-8.246,7.094a1.5,1.5,0,0,0,.976,2.629h1.052v9.744h-1.252a7.8,7.8,0,0,0-13.1,0h-2.179l.28-1.733a5.363,5.363,0,0,0,3.381-3.375l.36-1.076a1.016,1.016,0,0,0-.794-1.4h-1.457a4.473,4.473,0,0,1,2.788-1.7l4.546-.793a1.708,1.708,0,0,0,.747-.345l12.425-9.991.134-.137a.814.814,0,0,1,.641-.286h8.238Zm16.15,3.909H152v-2.627h15.3Zm0-3.909H152v-20.84h15.3Zm1.326,3.909h-.472v-2.627h1.065A7.755,7.755,0,0,0,168.62,197.654Zm7.819-7.467a7.82,7.82,0,0,0-6.548,3.558h-1.743v-20.84h11.8a.76.76,0,0,1,.715.412l3.639,9.129.188.8a.853.853,0,0,0-.828.636L182.9,186.8a.859.859,0,0,0,.009.467l.9,2.941a.854.854,0,0,0,.808.6l.651.007.242,2.93h-2.516a7.821,7.821,0,0,0-6.548-3.559Zm9.2,7.221a.82.82,0,0,1-.608.246h-.772a7.754,7.754,0,0,0-.594-2.626h1.944l.167,2.015a.48.48,0,0,1-.137.366Zm-35.232-10.967v.895a.854.854,0,0,1-.855.855H146.81a.854.854,0,0,1-.855-.855v-.895a.855.855,0,0,1,.855-.855h2.741A.855.855,0,0,1,150.406,186.441Zm6.74,0v.895a.854.854,0,0,1-.855.855H153.55a.854.854,0,0,1-.855-.855v-.895a.855.855,0,0,1,.855-.855h2.741A.855.855,0,0,1,157.146,186.441ZM154.181,184h10.931a1.5,1.5,0,0,0,1.5-1.5v-7.094a1.5,1.5,0,0,0-1.5-1.5H154.181a1.5,1.5,0,0,0-1.5,1.5v7.094A1.5,1.5,0,0,0,154.181,184Zm-.214-8.59a.214.214,0,0,1,.214-.214h10.931a.214.214,0,0,1,.214.214v7.094a.214.214,0,0,1-.214.214H154.181a.214.214,0,0,1-.214-.214Zm-21.3,18.334a5.941,5.941,0,1,0,1.014,1.282,6,6,0,0,0-1.014-1.282Zm-4.088,7.625a3.345,3.345,0,0,1-1.492-6.343,3.223,3.223,0,0,1,2.986,0,3.345,3.345,0,0,1-1.494,6.343Zm2.011-3.355a2.01,2.01,0,1,1-2.01-2.01A2.01,2.01,0,0,1,130.592,198.016Zm49.936-4.27a5.944,5.944,0,1,0,1.013,1.282,5.976,5.976,0,0,0-1.013-1.282Zm-4.088,7.625a3.345,3.345,0,0,1-1.493-6.343,3.222,3.222,0,0,1,2.985,0,3.345,3.345,0,0,1-1.492,6.343Zm2.01-3.355a2.01,2.01,0,1,1-2.01-2.01A2.01,2.01,0,0,1,178.451,198.016Zm4.337-16.024-2.631-7.088a1.539,1.539,0,0,0-1.443-.988h-8.505a1.5,1.5,0,0,0-1.5,1.5V182.5a1.5,1.5,0,0,0,1.5,1.5h11.136a1.543,1.543,0,0,0,1.27-.656,1.472,1.472,0,0,0,.173-1.352Zm-1.225.62a.254.254,0,0,1-.217.107H170.209a.214.214,0,0,1-.214-.214v-7.094a.214.214,0,0,1,.214-.214h8.506a.256.256,0,0,1,.241.152l2.631,7.088a.181.181,0,0,1-.024.174Z" transform="translate(0)" fill="#f58d31"/>
  </g>
</svg>
