<svg xmlns="http://www.w3.org/2000/svg" width="59.095" height="41.301" viewBox="0 0 59.095 41.301">
  <path id="Icon_simple-youtube" data-name="Icon simple-youtube" d="M57.869,11.8a7.407,7.407,0,0,0-5.143-5.143C48.119,5.424,29.581,5.424,29.581,5.424S11.09,5.4,6.437,6.658A7.407,7.407,0,0,0,1.294,11.8,76.968,76.968,0,0,0,.008,26.1,76.967,76.967,0,0,0,1.294,40.345a7.407,7.407,0,0,0,5.143,5.143c4.6,1.237,23.144,1.237,23.144,1.237s18.489,0,23.144-1.237a7.407,7.407,0,0,0,5.143-5.143A76.968,76.968,0,0,0,59.1,26.1a76.967,76.967,0,0,0-1.232-14.3Zm-34.2,23.144V17.228L39.094,26.1Z" transform="translate(-0.007 -5.424)" fill="#e80000"/>
</svg>
